<svg xmlns="http://www.w3.org/2000/svg" version="1.1" xmlns:xlink="http://www.w3.org/1999/xlink" xmlns:svgjs="http://svgjs.dev/svgjs" width="1000" height="282" viewBox="0 0 1000 282"><g transform="matrix(1,0,0,1,-0.6060606060606233,-0.08846358637035223)"><svg viewBox="0 0 396 112" data-background-color="#2874f0" preserveAspectRatio="xMidYMid meet" height="282" width="1000" xmlns="http://www.w3.org/2000/svg" xmlns:xlink="http://www.w3.org/1999/xlink"><g id="tight-bounds" transform="matrix(1,0,0,1,0.2400000000000091,0.03513447401942926)"><svg viewBox="0 0 395.52 111.92973105196114" height="111.92973105196114" width="395.52"><g><svg viewBox="0 0 603.6728450995416 170.83570791708104" height="111.92973105196114" width="395.52"><g transform="matrix(1,0,0,1,0,1.658515676274149)"><svg viewBox="0 0 395.52 167.51867656453274" height="167.51867656453274" width="395.52"><g id="textblocktransform"><svg viewBox="0 0 395.52 167.51867656453274" height="167.51867656453274" width="395.52" id="textblock"><g><svg viewBox="0 0 395.52 105.17513470044229" height="105.17513470044229" width="395.52"><g transform="matrix(1,0,0,1,0,0)"><svg width="395.52" viewBox="2.48 -37.5 186.5 49.6" height="105.17513470044229" data-palette-color="#ffffff"><path d="M14 0.7L14 0.7Q11.85 0.7 9.64 0.34 7.43-0.03 5.55-0.58 3.68-1.13 2.48-1.68L2.48-1.68 3.18-7.48Q4.7-6.73 6.61-6.03 8.53-5.33 10.65-4.85 12.78-4.38 14.95-4.38L14.95-4.38Q17.98-4.38 19.78-5.51 21.58-6.65 21.58-9.05L21.58-9.05Q21.58-10.85 20.63-11.99 19.68-13.13 17.76-13.96 15.85-14.8 12.9-15.73L12.9-15.73Q10.08-16.63 7.74-17.82 5.4-19.03 4-20.96 2.6-22.9 2.6-26.03L2.6-26.03Q2.6-28.85 4.04-31.04 5.48-33.23 8.28-34.46 11.08-35.7 15.2-35.7L15.2-35.7Q18.55-35.7 21.44-34.96 24.33-34.23 26.28-33.38L26.28-33.38 25.73-27.68Q22.83-29.23 20.24-29.93 17.65-30.63 14.93-30.63L14.93-30.63Q11.98-30.63 10.16-29.58 8.35-28.53 8.35-26.25L8.35-26.25Q8.35-24.6 9.22-23.59 10.1-22.58 11.8-21.85 13.5-21.13 15.95-20.35L15.95-20.35Q19.68-19.23 22.28-17.8 24.88-16.38 26.24-14.33 27.6-12.28 27.6-9.25L27.6-9.25Q27.6-7.3 26.91-5.53 26.23-3.75 24.65-2.34 23.08-0.93 20.46-0.11 17.85 0.7 14 0.7ZM37 0L31.75 0 31.75-37.5 37-37.5 37-20.73 35.5-21.25Q37.15-22.95 39.09-24.06 41.02-25.18 43.9-25.18L43.9-25.18Q47.12-25.18 49.22-23.74 51.32-22.3 52.35-19.73 53.37-17.15 53.37-13.75L53.37-13.75 53.37 0 48.15 0 48.15-13.25Q48.15-17.07 46.82-18.89 45.5-20.7 42.65-20.7L42.65-20.7Q40.37-20.7 38.76-19.55 37.15-18.4 36.1-16.48L36.1-16.48 37-19.48 37 0ZM70.07 0.5L70.07 0.5Q66.15 0.5 63.36-1.24 60.57-2.98 59.11-5.89 57.65-8.8 57.65-12.33L57.65-12.33Q57.65-15.88 59.11-18.8 60.57-21.73 63.36-23.46 66.15-25.2 70.07-25.2L70.07-25.2Q74.02-25.2 76.81-23.46 79.59-21.73 81.06-18.8 82.52-15.88 82.52-12.33L82.52-12.33Q82.52-8.8 81.06-5.89 79.59-2.98 76.81-1.24 74.02 0.5 70.07 0.5ZM70.07-3.98L70.07-3.98Q73.52-3.98 75.36-6.23 77.2-8.47 77.2-12.33L77.2-12.33Q77.2-16.2 75.36-18.48 73.52-20.75 70.07-20.75L70.07-20.75Q66.67-20.75 64.82-18.48 62.97-16.2 62.97-12.33L62.97-12.33Q62.97-8.47 64.82-6.23 66.67-3.98 70.07-3.98ZM92.24 12.1L87.02 12.1 87.02-24.7 91.17-24.7 92.14-19.73 90.64-20.53Q92.24-22.65 94.42-23.91 96.59-25.18 99.74-25.18L99.74-25.18Q103.22-25.18 105.67-23.44 108.12-21.7 109.39-18.79 110.67-15.88 110.67-12.33L110.67-12.33Q110.67-8.8 109.43-5.89 108.19-2.98 105.77-1.24 103.34 0.5 99.74 0.5L99.74 0.5Q96.82 0.5 94.68-0.54 92.54-1.58 91.14-3.73L91.14-3.73 92.24-4.75 92.24 12.1ZM98.84-3.98L98.84-3.98Q101.89-3.98 103.61-6.23 105.32-8.47 105.32-12.33L105.32-12.33Q105.32-16.2 103.61-18.45 101.89-20.7 98.84-20.7L98.84-20.7Q96.77-20.7 95.23-19.73 93.69-18.75 92.83-16.89 91.97-15.03 91.97-12.33L91.97-12.33Q91.97-9.58 92.83-7.73 93.69-5.88 95.23-4.93 96.77-3.98 98.84-3.98ZM134.19 0L112.82 0 127.27-22.45 127.89-20.2 113.77-20.2 113.77-24.7 134.29-24.7 119.82-2.25 119.09-4.5 134.19-4.5 134.19 0ZM143.56 0L138.34 0 138.34-24.7 143.56-24.7 143.56 0ZM143.56-29.5L138.34-29.5 138.34-35 143.56-35 143.56-29.5ZM156.38 0L151.16 0 151.16-20.53 147.21-20.53 147.78-24.7 151.16-24.7 151.16-30.3Q151.16-33.58 153-35.54 154.84-37.5 158.36-37.5L158.36-37.5Q159.59-37.5 160.56-37.35 161.53-37.2 162.31-36.93L162.31-36.93 161.69-32.63Q161.19-32.8 160.66-32.9 160.13-33 159.41-33L159.41-33Q158.01-33 157.2-32.23 156.38-31.45 156.38-29.65L156.38-29.65 156.38-24.7 162.51-24.7 162.51-20.53 156.38-20.53 156.38 0ZM173.71 12.1L168.21 12.1 173.81-1.33 163.53-24.7 169.33-24.7 176.46-7.4 183.18-24.7 188.98-24.7 173.71 12.1Z" opacity="1" transform="matrix(1,0,0,1,0,0)" fill="#ffffff" class="undefined-text-0" data-fill-palette-color="primary" id="text-0"></path></svg></g></svg></g><g transform="matrix(1,0,0,1,0,130.0044597999839)"><svg viewBox="0 0 375.74399999999997 37.51421676454885" height="37.51421676454885" width="375.74399999999997"><g transform="matrix(1,0,0,1,0,0)"><svg width="375.74399999999997" viewBox="2.2699999999999996 -26.9 274.34000000000003 27.39" height="37.51421676454885" data-palette-color="#ffffff"><path d="M14.4 0.49L14.4 0.49Q10.72 0.49 8-1.16 5.27-2.81 3.77-5.69 2.27-8.57 2.27-12.28L2.27-12.28 2.27-13.33Q2.27-17.63 3.92-20.67 5.57-23.71 8.22-25.31 10.86-26.9 13.82-26.9L13.82-26.9Q17.63-26.9 20.03-25.21 22.44-23.51 23.57-20.59 24.71-17.68 24.71-13.99L24.71-13.99 24.71-11.96 4.98-11.96 4.98-15.63 20.14-15.63 20.14-15.97Q20.04-17.72 19.43-19.4 18.82-21.07 17.48-22.16 16.14-23.24 13.82-23.24L13.82-23.24Q11.77-23.24 10.19-22.08 8.62-20.92 7.73-18.71 6.84-16.5 6.84-13.33L6.84-13.33 6.84-12.28Q6.84-9.77 7.76-7.7 8.69-5.64 10.45-4.41 12.21-3.17 14.65-3.17L14.65-3.17Q17.04-3.17 18.7-4.15 20.36-5.13 21.61-6.76L21.61-6.76 24.37-4.61Q23.1-2.66 20.72-1.09 18.33 0.49 14.4 0.49ZM39.38-16.97L39.38-13.28 27.44-13.28 27.44-16.97 39.38-16.97ZM54.34-3.17L54.34-3.17Q55.95-3.17 57.32-3.85 58.69-4.52 59.57-5.69 60.44-6.86 60.57-8.35L60.57-8.35 64.89-8.35Q64.77-6.01 63.3-3.99 61.84-1.98 59.49-0.74 57.15 0.49 54.34 0.49L54.34 0.49Q50.36 0.49 47.75-1.33 45.14-3.15 43.85-6.15 42.57-9.16 42.57-12.7L42.57-12.7 42.57-13.72Q42.57-17.29 43.87-20.28 45.16-23.27 47.77-25.09 50.39-26.9 54.34-26.9L54.34-26.9Q57.44-26.9 59.77-25.65 62.1-24.39 63.43-22.23 64.77-20.07 64.89-17.33L64.89-17.33 60.57-17.33Q60.44-18.97 59.65-20.31 58.86-21.66 57.5-22.45 56.15-23.24 54.34-23.24L54.34-23.24Q51.58-23.24 50.01-21.83 48.43-20.41 47.79-18.23 47.14-16.04 47.14-13.72L47.14-13.72 47.14-12.7Q47.14-10.38 47.77-8.18 48.41-5.98 49.98-4.58 51.56-3.17 54.34-3.17ZM68.77-12.92L68.77-13.48Q68.77-17.31 70.23-20.34 71.7-23.36 74.38-25.13 77.07-26.9 80.75-26.9L80.75-26.9Q84.49-26.9 87.2-25.13 89.91-23.36 91.36-20.34 92.81-17.31 92.81-13.48L92.81-13.48 92.81-12.92Q92.81-9.11 91.36-6.07 89.91-3.03 87.21-1.27 84.51 0.49 80.8 0.49L80.8 0.49Q77.09 0.49 74.39-1.27 71.7-3.03 70.23-6.07 68.77-9.11 68.77-12.92L68.77-12.92ZM73.33-13.48L73.33-12.92Q73.33-10.3 74.16-8.08 74.99-5.86 76.64-4.52 78.29-3.17 80.8-3.17L80.8-3.17Q83.29-3.17 84.94-4.52 86.59-5.86 87.42-8.08 88.25-10.3 88.25-12.92L88.25-12.92 88.25-13.48Q88.25-16.09 87.42-18.31 86.59-20.53 84.93-21.89 83.27-23.24 80.75-23.24L80.75-23.24Q78.29-23.24 76.63-21.89 74.97-20.53 74.15-18.31 73.33-16.09 73.33-13.48L73.33-13.48ZM103.02-21.17L103.02 0 98.45 0 98.45-26.42 102.77-26.42 103.02-21.17ZM102.09-14.23L99.97-14.31Q99.99-17.92 101.2-20.76 102.41-23.61 104.79-25.26 107.17-26.9 110.71-26.9L110.71-26.9Q114.42-26.9 116.84-24.73 119.25-22.56 119.25-17.6L119.25-17.6 119.25 0 114.69 0 114.69-17.38Q114.69-19.46 113.99-20.72 113.3-21.97 112.03-22.55 110.76-23.12 109.05-23.12L109.05-23.12Q107.07-23.12 105.74-22.41 104.41-21.7 103.6-20.46 102.8-19.21 102.44-17.61 102.09-16.02 102.09-14.23L102.09-14.23ZM119.2-16.72L116.15-15.8Q116.18-18.68 117.39-21.22 118.59-23.75 120.94-25.33 123.28-26.9 126.65-26.9L126.65-26.9Q129.48-26.9 131.46-25.9 133.44-24.9 134.46-22.8 135.49-20.7 135.49-17.36L135.49-17.36 135.49 0 130.92 0 130.92-17.41Q130.92-19.63 130.23-20.87 129.53-22.12 128.27-22.62 127.02-23.12 125.31-23.12L125.31-23.12Q123.82-23.12 122.68-22.61 121.55-22.09 120.78-21.2 120.01-20.31 119.61-19.17 119.2-18.02 119.2-16.72L119.2-16.72ZM146.84-21.17L146.84 0 142.27 0 142.27-26.42 146.59-26.42 146.84-21.17ZM145.91-14.23L143.79-14.31Q143.81-17.92 145.02-20.76 146.23-23.61 148.61-25.26 150.99-26.9 154.53-26.9L154.53-26.9Q158.24-26.9 160.66-24.73 163.07-22.56 163.07-17.6L163.07-17.6 163.07 0 158.51 0 158.51-17.38Q158.51-19.46 157.81-20.72 157.12-21.97 155.85-22.55 154.58-23.12 152.87-23.12L152.87-23.12Q150.89-23.12 149.56-22.41 148.23-21.7 147.42-20.46 146.62-19.21 146.26-17.61 145.91-16.02 145.91-14.23L145.91-14.23ZM163.02-16.72L159.97-15.8Q160-18.68 161.21-21.22 162.41-23.75 164.76-25.33 167.1-26.9 170.47-26.9L170.47-26.9Q173.3-26.9 175.28-25.9 177.26-24.9 178.28-22.8 179.31-20.7 179.31-17.36L179.31-17.36 179.31 0 174.74 0 174.74-17.41Q174.74-19.63 174.05-20.87 173.35-22.12 172.09-22.62 170.84-23.12 169.13-23.12L169.13-23.12Q167.64-23.12 166.5-22.61 165.37-22.09 164.6-21.2 163.83-20.31 163.43-19.17 163.02-18.02 163.02-16.72L163.02-16.72ZM197.1 0.49L197.1 0.49Q193.42 0.49 190.7-1.16 187.97-2.81 186.47-5.69 184.97-8.57 184.97-12.28L184.97-12.28 184.97-13.33Q184.97-17.63 186.62-20.67 188.27-23.71 190.92-25.31 193.56-26.9 196.52-26.9L196.52-26.9Q200.33-26.9 202.73-25.21 205.14-23.51 206.27-20.59 207.41-17.68 207.41-13.99L207.41-13.99 207.41-11.96 187.68-11.96 187.68-15.63 202.84-15.63 202.84-15.97Q202.74-17.72 202.13-19.4 201.52-21.07 200.18-22.16 198.84-23.24 196.52-23.24L196.52-23.24Q194.47-23.24 192.89-22.08 191.32-20.92 190.43-18.71 189.54-16.5 189.54-13.33L189.54-13.33 189.54-12.28Q189.54-9.77 190.46-7.7 191.39-5.64 193.15-4.41 194.91-3.17 197.35-3.17L197.35-3.17Q199.74-3.17 201.4-4.15 203.06-5.13 204.31-6.76L204.31-6.76 207.07-4.61Q205.8-2.66 203.42-1.09 201.03 0.49 197.1 0.49ZM217.22-22.27L217.22 0 212.65 0 212.65-26.42 217.1-26.42 217.22-22.27ZM225.45-26.56L225.45-22.39Q224.86-22.51 224.36-22.55 223.86-22.58 223.22-22.58L223.22-22.58Q221.15-22.58 219.72-21.73 218.29-20.87 217.51-19.37 216.73-17.87 216.54-15.94L216.54-15.94 215.24-15.21Q215.24-18.41 216.1-21.06 216.95-23.71 218.77-25.31 220.59-26.9 223.44-26.9L223.44-26.9Q223.91-26.9 224.56-26.79 225.2-26.68 225.45-26.56L225.45-26.56ZM239.73-3.17L239.73-3.17Q241.34-3.17 242.7-3.85 244.07-4.52 244.95-5.69 245.83-6.86 245.95-8.35L245.95-8.35 250.27-8.35Q250.15-6.01 248.69-3.99 247.22-1.98 244.88-0.74 242.53 0.49 239.73 0.49L239.73 0.49Q235.75 0.49 233.13-1.33 230.52-3.15 229.24-6.15 227.96-9.16 227.96-12.7L227.96-12.7 227.96-13.72Q227.96-17.29 229.25-20.28 230.55-23.27 233.16-25.09 235.77-26.9 239.73-26.9L239.73-26.9Q242.83-26.9 245.16-25.65 247.49-24.39 248.82-22.23 250.15-20.07 250.27-17.33L250.27-17.33 245.95-17.33Q245.83-18.97 245.04-20.31 244.24-21.66 242.89-22.45 241.53-23.24 239.73-23.24L239.73-23.24Q236.97-23.24 235.39-21.83 233.82-20.41 233.17-18.23 232.52-16.04 232.52-13.72L232.52-13.72 232.52-12.7Q232.52-10.38 233.16-8.18 233.79-5.98 235.37-4.58 236.94-3.17 239.73-3.17ZM266.31 0.49L266.31 0.49Q262.62 0.49 259.9-1.16 257.18-2.81 255.68-5.69 254.18-8.57 254.18-12.28L254.18-12.28 254.18-13.33Q254.18-17.63 255.82-20.67 257.47-23.71 260.12-25.31 262.77-26.9 265.72-26.9L265.72-26.9Q269.53-26.9 271.94-25.21 274.34-23.51 275.48-20.59 276.61-17.68 276.61-13.99L276.61-13.99 276.61-11.96 256.89-11.96 256.89-15.63 272.05-15.63 272.05-15.97Q271.95-17.72 271.34-19.4 270.73-21.07 269.39-22.16 268.04-23.24 265.72-23.24L265.72-23.24Q263.67-23.24 262.1-22.08 260.52-20.92 259.63-18.71 258.74-16.5 258.74-13.33L258.74-13.33 258.74-12.28Q258.74-9.77 259.67-7.7 260.6-5.64 262.36-4.41 264.11-3.17 266.55-3.17L266.55-3.17Q268.95-3.17 270.61-4.15 272.27-5.13 273.51-6.76L273.51-6.76 276.27-4.61Q275-2.66 272.62-1.09 270.24 0.49 266.31 0.49Z" opacity="1" transform="matrix(1,0,0,1,0,0)" fill="#ffffff" class="undefined-text-1" data-fill-palette-color="secondary" id="text-1"></path></svg></g></svg></g></svg></g></svg></g><g transform="matrix(1,0,0,1,420.3493250995416,0)"><svg viewBox="0 0 183.32352 170.83570791708104" height="170.83570791708104" width="183.32352"><g><svg xmlns="http://www.w3.org/2000/svg" xmlns:xlink="http://www.w3.org/1999/xlink" version="1.0" x="0" y="0" viewBox="3.9652414017798736 6.5153206659267875 92.06951750268354 85.79783543407319" enable-background="new 0 0 100 100" xml:space="preserve" height="170.83570791708104" width="183.32352" class="icon-icon-0" data-fill-palette-color="accent" id="icon-0"><circle cx="60.4999924" cy="55.1433144" r="1.9" fill="#ffffff" data-fill-palette-color="accent"></circle><path d="M83.447 50.36L53.573 25.893c-2.047-1.787-5.099-1.787-7.146 0L16.566 50.348c-1.434 1.252-2.257 3.062-2.256 4.966v34.158c0 1.563 1.278 2.841 2.841 2.841h65.698c1.563 0 2.841-1.279 2.841-2.841V55.296C85.69 53.404 84.873 51.604 83.447 50.36zM42.321 79.917c-1.72 0-3.115-1.395-3.116-3.115 0-1.721 1.395-3.116 3.116-3.116 1.721 0 3.116 1.395 3.116 3.116C45.437 78.522 44.041 79.917 42.321 79.917zM55.451 79.917c-1.719 0-3.115-1.395-3.115-3.115 0-1.721 1.396-3.116 3.115-3.116 1.721 0 3.116 1.395 3.116 3.116C58.567 78.522 57.172 79.917 55.451 79.917zM61.867 59.753l-1.628 9.183c-0.213 1.196-1.248 2.056-2.452 2.056-0.033 0-0.066-0.001-0.1-0.002L39.293 70.258c-1.143-0.046-2.106-0.861-2.339-1.98l-1.986-9.51c-0.141-0.679 0.011-1.398 0.416-1.962 0.404-0.563 1.038-0.937 1.726-1.02l18.699-2.24c0.681-1.815 2.431-3.106 4.485-3.107 2.646 0.002 4.788 2.143 4.789 4.789C65.082 57.323 63.74 59.102 61.867 59.753z" fill="#ffffff" data-fill-palette-color="accent"></path><path d="M94.599 42.209L52.513 7.377c-0.732-0.605-1.628-0.884-2.513-0.86-0.885-0.024-1.781 0.255-2.513 0.86L32.031 20.169c-0.717 0.593-1.802 0.083-1.801-0.848v-6.371c0-1.563-1.278-2.841-2.841-2.841h-7.577c-1.563 0-2.841 1.279-2.841 2.841v18.45c0 0.781-0.348 1.522-0.95 2.019l-10.62 8.79c-1.489 1.232-1.899 3.399-0.853 5.024 1.247 1.937 3.885 2.302 5.606 0.876l36.745-30.41c1.799-1.489 4.403-1.489 6.202 0l36.745 30.41c1.722 1.425 4.36 1.061 5.606-0.876C96.498 45.607 96.088 43.441 94.599 42.209z" fill="#ffffff" data-fill-palette-color="accent"></path></svg></g></svg></g></svg></g><defs></defs></svg><rect width="395.52" height="111.92973105196114" fill="none" stroke="none" visibility="hidden"></rect></g></svg></g></svg>